HIERARCHY
ROOT hip
{
	OFFSET 0.000000 0.000000 0.000000 
	CHANNELS 6 Xposition Yposition Zposition Xrotation Zrotation Yrotation
	JOINT abdomen
	{
		OFFSET 0.000000 3.402643 0.000000 
		CHANNELS 3 Xrotation Zrotation Yrotation
		JOINT chest
		{
			OFFSET 0.000000 8.438565 -0.680529 
			CHANNELS 3 Xrotation Zrotation Yrotation
			JOINT neck
			{
				OFFSET 0.000000 10.207942 -0.272212 
				CHANNELS 3 Xrotation Zrotation Yrotation
				JOINT head
				{
					OFFSET 0.000000 3.130431 0.000000 
					CHANNELS 3 Xrotation Zrotation Yrotation
					End Site
					{
						OFFSET 0.000000 3.130435 0.000000 
					}
				}
			}
			JOINT lCollar
			{
				OFFSET 3.470700 6.669187 -0.816635 
				CHANNELS 3 Yrotation Zrotation Xrotation
				JOINT lShldr
				{
					OFFSET 3.198488 0.000000 0.000000 
					CHANNELS 3 Zrotation Yrotation Xrotation
					JOINT lForeArm
					{
						OFFSET 10.139888 0.000000 0.000000 
						CHANNELS 3 Yrotation Zrotation Xrotation
						JOINT lHand
						{
							OFFSET 8.370511 0.000000 0.000000 
							CHANNELS 3 Zrotation Yrotation Xrotation
							End Site
							{
								OFFSET 4.083176 0.000000 0.000000 
							}
						}
					}
				}
			}
			JOINT rCollar
			{
				OFFSET -3.470700 6.669187 -0.816635 
				CHANNELS 3 Yrotation Zrotation Xrotation
				JOINT rShldr
				{
					OFFSET -3.198488 0.000000 0.000000 
					CHANNELS 3 Zrotation Yrotation Xrotation
					JOINT rForeArm
					{
						OFFSET -10.139888 0.000000 0.000000 
						CHANNELS 3 Yrotation Zrotation Xrotation
						JOINT rHand
						{
							OFFSET -8.370511 0.000000 0.000000 
							CHANNELS 3 Zrotation Yrotation Xrotation
							End Site
							{
								OFFSET -4.083176 0.000000 0.000000 
							}
						}
					}
				}
			}
		}
	}
	JOINT lThigh
	{
		OFFSET 5.308129 -1.633274 1.361059 
		CHANNELS 3 Xrotation Zrotation Yrotation
		JOINT lShin
		{
			OFFSET -2.041588 -20.007561 0.000000 
			CHANNELS 3 Xrotation Zrotation Yrotation
			JOINT lFoot
			{
				OFFSET 0.000000 -19.190928 -1.224953 
				CHANNELS 3 Xrotation Yrotation Zrotation
				End Site
				{
					OFFSET 0.000000 -2.449906 4.627600 
				}
			}
		}
	}
	JOINT rThigh
	{
		OFFSET -5.308129 -1.633274 1.361059 
		CHANNELS 3 Xrotation Zrotation Yrotation
		JOINT rShin
		{
			OFFSET 2.041588 -20.007561 0.000000 
			CHANNELS 3 Xrotation Zrotation Yrotation
			JOINT rFoot
			{
				OFFSET 0.000000 -19.190928 -1.224953 
				CHANNELS 3 Xrotation Yrotation Zrotation
				End Site
				{
					OFFSET 0.000000 -2.449906 4.627600 
				}
			}
		}
	}
}
MOTION
Frames: 13
Frame Time: 0.016667
2.859165 53.092365 -33.149094 -12.879736 -1.608991 3.086913 25.268248 5.010847 2.460561 5.216641 -0.058566 -2.509775 2.823854 1.086965 0.003614 14.181243 -8.306163 3.364235 -17.700027 -16.081051 -0.859607 -63.681637 11.231946 -27.904129 -52.843533 -5.000000 15.692853 29.091373 -30.000000 41.070518 19.192080 9.537265 -0.505730 54.380577 6.409693 -0.005310 92.947350 5.000000 -2.157873 8.429499 -24.795805 -21.597982 16.311777 4.374111 4.095819 15.837277 -5.138485 -1.652391 -8.930989 11.822168 -0.300206 1.921244 -16.058279 -12.285078 18.737139 5.038837 1.930706 -0.755696 -11.308571 8.289861 
2.787189 53.164024 -33.402802 -12.799491 -1.862844 2.901714 25.139462 5.286796 2.528291 5.208513 -0.117137 -2.363298 2.784793 1.086965 0.003614 14.232126 -8.334477 3.473346 -17.632435 -16.129816 -0.862125 -63.696774 11.288159 -27.954315 -52.882645 -5.000000 15.715451 29.183626 -30.000000 40.980808 19.180422 9.501465 -0.494614 54.322926 6.525432 0.169413 92.885147 5.000000 -2.108088 8.483521 -24.714003 -21.654547 16.330061 4.705864 3.996568 15.004823 -5.342650 -1.644781 -8.219107 12.035747 -0.318801 2.733903 -15.956137 -12.625092 19.583260 4.888224 1.939797 -0.826563 -11.414129 8.254725 
2.702796 53.231094 -33.646244 -12.713983 -2.077826 2.667448 25.019323 5.499268 2.592059 5.171375 -0.195239 -2.187524 2.775028 1.096620 0.002155 14.266650 -8.333608 3.572797 -17.574610 -16.178583 -0.864642 -63.734653 11.365431 -28.059250 -52.911507 -5.000000 15.741570 29.169775 -30.000000 40.927547 19.160803 9.491714 -0.494108 54.243801 6.680027 0.362370 92.824036 5.000000 -2.068467 8.589669 -24.634361 -21.743904 16.322128 5.038266 3.898017 14.263798 -5.596804 -1.657002 -7.525391 12.248477 -0.359609 3.524018 -15.895723 -12.868040 20.271738 4.742909 1.924392 -0.709468 -11.539696 8.246136 
2.606126 53.293350 -33.875648 -12.616536 -2.283098 2.433211 24.887581 5.694749 2.648549 5.143709 -0.273348 -2.011749 2.755496 1.106276 0.000695 14.291245 -8.313130 3.680498 -17.507025 -16.227354 -0.867159 -63.761497 11.442963 -28.153851 -52.929787 -5.000000 15.766418 29.128933 -30.000000 40.900120 19.150953 9.481961 -0.493603 54.166325 6.827241 0.560508 92.762802 5.000000 -2.018669 8.685582 -24.558138 -21.829014 16.329105 5.369548 3.789237 13.493757 -5.850954 -1.663357 -6.852673 12.460114 -0.422607 4.325444 -15.829648 -13.070652 20.924772 4.605696 1.886870 -0.537438 -11.564569 8.300713 
2.499151 53.353130 -34.089848 -12.517615 -2.439529 2.247798 24.744762 5.882837 2.699027 5.135641 -0.351455 -1.894565 2.706486 1.046881 -0.000202 14.292712 -8.244091 3.768881 -17.391388 -16.324886 -0.872191 -63.747391 11.499864 -28.226261 -52.892879 -5.000000 15.799402 29.041534 -30.000000 40.909962 19.180248 9.481960 -0.493603 54.041050 6.945100 0.726095 92.731125 5.000000 -1.980706 8.787319 -24.521620 -21.913473 16.323982 5.673468 3.535183 12.780325 -6.055784 -1.618498 -6.241594 12.697313 -0.532197 5.171870 -15.774902 -13.129245 21.320578 4.477923 1.897417 -0.183448 -11.523295 8.480863 
2.381547 53.408096 -34.292252 -12.417773 -2.586200 2.072169 24.589949 6.056946 2.733526 5.137205 -0.429565 -1.767686 2.657488 0.977830 0.000360 14.296456 -8.165398 3.847599 -17.265997 -16.422422 -0.879982 -63.724613 11.561455 -28.298622 -52.855930 -5.000000 15.832417 28.932838 -30.000000 40.953239 19.219315 9.481961 -0.493603 53.916050 7.058044 0.884413 92.699242 5.000000 -1.940251 8.889315 -24.474348 -22.010815 16.296396 5.995840 3.265680 12.096871 -6.250760 -1.563279 -5.596045 12.935125 -0.701817 6.002086 -15.746511 -13.158753 21.682446 4.360855 1.905884 0.205994 -11.438844 8.699002 
2.251942 53.451900 -34.488686 -12.288606 -2.703537 1.935586 24.432518 6.197161 2.743068 5.108421 -0.478395 -1.660275 2.559523 0.868696 -0.002896 14.274002 -8.125386 3.955318 -17.150539 -16.529705 -0.885528 -63.745411 11.608682 -28.374475 -52.833099 -5.000000 15.871811 28.907280 -30.000000 40.939507 19.288776 9.429974 -0.500168 53.802334 7.157961 1.039969 92.687340 5.000000 -1.934885 8.914378 -24.434893 -22.133408 16.182093 6.257753 2.985467 11.497638 -6.378370 -1.508641 -5.016129 13.199780 -0.908966 6.805912 -15.702245 -13.123567 21.892517 4.254525 1.874267 0.320216 -11.475262 9.027756 
2.111713 53.485966 -34.678978 -12.139705 -2.772013 1.838039 24.280230 6.311715 2.712688 5.078065 -0.478417 -1.533244 2.403009 0.730594 -0.001775 14.236348 -8.124125 4.083751 -17.035412 -16.656494 -0.892077 -63.789822 11.646414 -28.443481 -52.832455 -5.000000 15.928062 28.984409 -30.000000 40.870945 19.375721 9.322685 -0.494605 53.707150 7.254586 1.176081 92.691734 5.000000 -1.957564 8.868731 -24.380533 -22.302620 16.012239 6.542274 2.718801 11.020525 -6.503514 -1.512281 -4.484018 13.451986 -1.126066 7.554187 -15.667714 -13.036718 21.958672 4.224620 1.845146 0.161926 -11.504602 9.520262 
1.960420 53.514393 -34.864586 -11.981102 -2.850249 1.740015 24.129646 6.427582 2.702836 5.037941 -0.478438 -1.416061 2.256206 0.591031 -0.010310 14.199421 -8.113087 4.210805 -16.929911 -16.773531 -0.898120 -63.827843 11.692991 -28.517071 -52.831837 -5.000000 15.988217 29.055771 -30.000000 40.801670 19.461182 9.218650 -0.478387 53.603615 7.344056 1.317524 92.697067 5.000000 -1.987463 8.832756 -24.322964 -22.472094 15.816499 6.795938 2.416001 10.556816 -6.627669 -1.477876 -3.946768 13.797099 -1.306875 8.299995 -15.633919 -12.967588 22.039076 4.166574 1.831273 -0.002432 -11.620342 9.979366 
1.798410 53.539761 -35.048241 -11.784781 -2.801429 1.749776 23.974010 6.447399 2.672552 4.949895 -0.497975 -1.318407 1.992384 0.433618 -0.006272 14.292838 -8.132360 4.231517 -16.892458 -16.871050 -0.903148 -63.872795 11.739428 -28.547890 -52.767029 -5.000000 16.005957 28.953173 -30.000000 40.863258 19.530363 9.137366 -0.483440 53.534851 7.342475 1.418388 92.651451 5.000000 -1.953350 8.943789 -24.291010 -22.472208 15.448899 7.002099 2.252917 10.364486 -6.657741 -1.451472 -3.557143 13.790758 -1.557236 8.981124 -15.592911 -12.853622 21.671959 4.263209 1.859129 -0.590908 -12.002545 10.444445 
1.623492 53.559753 -35.226170 -11.579150 -2.752595 1.769290 23.818321 6.467022 2.641634 4.861965 -0.527276 -1.220754 1.728557 0.274743 -0.011891 14.378602 -8.141997 4.241183 -16.855179 -16.978321 -0.908678 -63.920475 11.781313 -28.591562 -52.699635 -5.000000 16.033007 28.850491 -30.000000 40.918102 19.598055 9.059338 -0.479403 53.466187 7.341175 1.520498 92.606331 5.000000 -1.918630 9.050731 -24.250122 -22.472397 15.092063 7.195971 2.116811 10.165294 -6.658281 -1.460829 -3.166254 13.869960 -1.771052 9.681540 -15.559953 -12.761725 21.304464 4.351857 1.903772 -1.178607 -12.374995 10.932516 
1.429499 53.571564 -35.392860 -11.403286 -2.606040 1.866857 23.674101 6.391096 2.500589 4.784033 -0.576107 -1.142633 1.435565 0.186381 -0.008414 14.465241 -8.102734 4.270189 -16.814068 -17.029907 -0.902253 -63.965008 11.836446 -28.618280 -52.663136 -5.000000 16.027103 28.739185 -30.000000 40.981880 19.684153 9.023603 -0.468301 53.403885 7.369150 1.614676 92.548584 5.000000 -1.878872 8.979087 -24.257759 -22.576454 14.700348 7.331466 1.908164 10.071468 -6.658217 -1.462208 -2.839748 13.863235 -2.056705 10.405631 -15.532957 -12.671218 20.578756 4.439075 1.851845 -1.635364 -12.557253 11.407966 
1.214488 53.574295 -35.547756 -11.236909 -2.371541 2.042499 23.543964 6.199548 2.271688 4.715903 -0.634704 -1.093809 1.103537 0.167069 -0.005495 14.544477 -8.014679 4.308874 -16.777868 -17.027090 -0.914052 -64.000359 11.905002 -28.636803 -52.637035 -5.000000 15.991593 28.634962 -30.000000 40.999943 19.801340 9.023603 -0.468301 53.349365 7.424249 1.713167 92.460220 5.000000 -1.819477 8.702744 -24.294197 -22.764231 14.285594 7.392449 1.663803 10.094643 -6.641006 -1.453086 -2.535600 13.920883 -2.226480 11.156871 -15.473427 -12.597071 19.528397 4.488812 1.747415 -1.980470 -12.677003 11.854399 
